<svg id="Layer_1" data-name="Layer 1" xmlns="http://www.w3.org/2000/svg" viewBox="0 0 108.794 123.123">
  <defs>
    <style>
      .cls-1 {
        fill: #b8ff07;
      }
    </style>
  </defs>
  <title>Social Media Logos</title>
  <path d="M109.445,61.725c0,9.16.169,18.326-.14,27.476a7.525,7.525,0,0,1-3.029,5.394q-24.05,14.255-48.443,27.926a6.819,6.819,0,0,1-5.68-.036q-24.37-13.7-48.444-27.917A6.856,6.856,0,0,1,.86,89.608Q.558,61.631.873,33.65a7.39,7.39,0,0,1,3.122-5.3Q27.82,14.2,51.986.638a7.455,7.455,0,0,1,6.2.079c16.108,9.042,32.027,18.42,48.1,27.525,2.606,1.476,3.251,3.238,3.208,6C109.356,43.4,109.445,52.565,109.445,61.725Z" transform="translate(-0.706 0)"/>
  <g>
    <path class="cls-1" d="M83.665,64.608a16.734,16.734,0,0,0-3.386-8.869,11.866,11.866,0,0,0-5.1-3.686,15.682,15.682,0,0,0-6.585-.915,11.805,11.805,0,0,0-9.075,4.751c-.289.377-.57.76-.855,1.14a1.141,1.141,0,0,1-.092-.528c0-1.332-.017-2.664.011-3.995.009-.445-.127-.56-.566-.558-3.75.017-7.5.01-11.25.01h-.5c0,.412,0,.76,0,1.108.013,3.168.043,6.336.037,9.5q-.026,12.947-.086,25.895c0,.439.115.563.558.561,3.734-.018,7.469-.01,11.2-.01.587,0,.588,0,.588-.608q0-9.551,0-19.1c0-.551.035-1.1.023-1.652a6.8,6.8,0,0,1,9.077-6.432A5.515,5.515,0,0,1,71.028,65.2a15.246,15.246,0,0,1,.518,4.313q.01,9.436,0,18.872v.639H83.857V66.151C83.793,65.636,83.725,65.122,83.665,64.608Z" transform="translate(-0.706 0)"/>
    <path class="cls-1" d="M27.1,52.47q0,18.019-.008,36.038c0,.4.1.519.511.517,3.764-.016,7.529-.009,11.293-.01.161,0,.323-.016.479-.025v-37H27.1Z" transform="translate(-0.706 0)"/>
    <path class="cls-1" d="M36.968,34.949a7.3,7.3,0,0,0-4.264-.819c-2.811.233-4.962,1.452-5.981,4.223a6.375,6.375,0,0,0,1.758,6.907,7.722,7.722,0,0,0,4.769,1.735,23.672,23.672,0,0,0,2.55-.508,5.854,5.854,0,0,0,4.285-4.731A6.216,6.216,0,0,0,36.968,34.949Z" transform="translate(-0.706 0)"/>
  </g>
</svg>
